<svg id="visual" viewBox="0 0 1200 40" width="1200" height="40" xmlns="http://www.w3.org/2000/svg" xmlns:xlink="http://www.w3.org/1999/xlink" version="1.1"><path d="M0 38L15.3 36.7C30.7 35.3 61.3 32.7 92.2 32.2C123 31.7 154 33.3 184.8 32.8C215.7 32.3 246.3 29.7 277 30.2C307.7 30.7 338.3 34.3 369.2 34C400 33.7 431 29.3 461.8 27.3C492.7 25.3 523.3 25.7 554 26.7C584.7 27.7 615.3 29.3 646 30.3C676.7 31.3 707.3 31.7 738.2 32.2C769 32.7 800 33.3 830.8 33.3C861.7 33.3 892.3 32.7 923 33C953.7 33.3 984.3 34.7 1015.2 34C1046 33.3 1077 30.7 1107.8 29.5C1138.7 28.3 1169.3 28.7 1184.7 28.8L1200 29" fill="none" stroke-linecap="round" stroke-linejoin="miter" stroke="#0099FF" stroke-width="28"></path></svg>